<?xml version="1.0" standalone="no"?><!DOCTYPE svg PUBLIC "-//W3C//DTD SVG 1.1//EN" "http://www.w3.org/Graphics/SVG/1.1/DTD/svg11.dtd"><svg t="1587730281828" class="icon" viewBox="0 0 1024 1024" version="1.1" xmlns="http://www.w3.org/2000/svg" p-id="2985" xmlns:xlink="http://www.w3.org/1999/xlink" width="200" height="200"><defs><style type="text/css">@font-face { font-family: "Source Sans Pro SB"; src: url("chrome-extension://jcbfebakonmpfdgeflcomgpgefmbhlck/fonts/source-300.woff2"); font-weight: 300; }
@font-face { font-family: "Source Sans Pro SB"; src: url("chrome-extension://jcbfebakonmpfdgeflcomgpgefmbhlck/fonts/source-400.woff2"); font-weight: 400; }
@font-face { font-family: "Source Sans Pro SB"; src: url("chrome-extension://jcbfebakonmpfdgeflcomgpgefmbhlck/fonts/source-600.woff2"); font-weight: 600; }
@font-face { font-family: "Source Sans Pro SB"; src: url("chrome-extension://jcbfebakonmpfdgeflcomgpgefmbhlck/fonts/source-700.woff2"); font-weight: 700; }
@font-face { font-family: "Source Sans Pro SB"; src: url("chrome-extension://jcbfebakonmpfdgeflcomgpgefmbhlck/fonts/source-900.woff2"); font-weight: 900; }
</style></defs><path d="M488 488V192a16 16 0 0 1 16-16h16a16 16 0 0 1 16 16v296H832a16 16 0 0 1 16 16v16a16 16 0 0 1-16 16H536V832a16 16 0 0 1-16 16h-16a16 16 0 0 1-16-16V536H192a16 16 0 0 1-16-16v-16a16 16 0 0 1 16-16h296z" p-id="2986"></path></svg>